<mxfile host="app.diagrams.net" modified="2022-09-22T05:53:31.841Z" agent="5.0 (Macintosh; Intel Mac OS X 10_15_7) AppleWebKit/537.36 (KHTML, like Gecko) Chrome/105.0.0.0 Safari/537.36" etag="T7J9wNMVLF6RW8X0kAz0" version="18.0.0" type="github">
  <diagram id="F-07AsuqGngknCG6S7us" name="第 1 页">
    <mxGraphModel dx="803" dy="476" grid="1" gridSize="10" guides="1" tooltips="1" connect="1" arrows="1" fold="1" page="1" pageScale="1" pageWidth="850" pageHeight="1100" math="0" shadow="0">
      <root>
        <mxCell id="0" />
        <mxCell id="1" parent="0" />
        <mxCell id="gdBLPPlD3JlrtYlogpjC-21" style="edgeStyle=orthogonalEdgeStyle;curved=1;rounded=0;orthogonalLoop=1;jettySize=auto;html=1;exitX=1;exitY=0.5;exitDx=0;exitDy=0;entryX=0;entryY=0.5;entryDx=0;entryDy=0;" edge="1" parent="1" source="w-5nDEa_0-9KYwIn5jIa-20" target="gdBLPPlD3JlrtYlogpjC-12">
          <mxGeometry relative="1" as="geometry" />
        </mxCell>
        <mxCell id="w-5nDEa_0-9KYwIn5jIa-20" value="" style="rounded=0;whiteSpace=wrap;html=1;" parent="1" vertex="1">
          <mxGeometry x="100" y="120" width="160" height="240" as="geometry" />
        </mxCell>
        <mxCell id="w-5nDEa_0-9KYwIn5jIa-6" value="研究" style="whiteSpace=wrap;html=1;aspect=fixed;" parent="1" vertex="1">
          <mxGeometry x="110" y="130" width="40" height="40" as="geometry" />
        </mxCell>
        <mxCell id="w-5nDEa_0-9KYwIn5jIa-7" value="两融" style="whiteSpace=wrap;html=1;aspect=fixed;" parent="1" vertex="1">
          <mxGeometry x="160" y="130" width="40" height="40" as="geometry" />
        </mxCell>
        <mxCell id="w-5nDEa_0-9KYwIn5jIa-8" value="现金股票" style="whiteSpace=wrap;html=1;aspect=fixed;" parent="1" vertex="1">
          <mxGeometry x="110" y="190" width="40" height="40" as="geometry" />
        </mxCell>
        <mxCell id="w-5nDEa_0-9KYwIn5jIa-9" value="权益衍生品" style="whiteSpace=wrap;html=1;aspect=fixed;" parent="1" vertex="1">
          <mxGeometry x="160" y="190" width="40" height="40" as="geometry" />
        </mxCell>
        <mxCell id="w-5nDEa_0-9KYwIn5jIa-10" value="FICC及场外" style="whiteSpace=wrap;html=1;aspect=fixed;" parent="1" vertex="1">
          <mxGeometry x="210" y="190" width="40" height="40" as="geometry" />
        </mxCell>
        <mxCell id="w-5nDEa_0-9KYwIn5jIa-11" value="基金托管" style="whiteSpace=wrap;html=1;aspect=fixed;" parent="1" vertex="1">
          <mxGeometry x="110" y="250" width="40" height="40" as="geometry" />
        </mxCell>
        <mxCell id="w-5nDEa_0-9KYwIn5jIa-12" value="基金服务" style="whiteSpace=wrap;html=1;aspect=fixed;" parent="1" vertex="1">
          <mxGeometry x="160" y="250" width="40" height="40" as="geometry" />
        </mxCell>
        <mxCell id="w-5nDEa_0-9KYwIn5jIa-13" value="金融产品代销" style="whiteSpace=wrap;html=1;aspect=fixed;" parent="1" vertex="1">
          <mxGeometry x="210" y="250" width="40" height="40" as="geometry" />
        </mxCell>
        <mxCell id="w-5nDEa_0-9KYwIn5jIa-14" value="股权承销发行" style="whiteSpace=wrap;html=1;aspect=fixed;" parent="1" vertex="1">
          <mxGeometry x="110" y="310" width="40" height="40" as="geometry" />
        </mxCell>
        <mxCell id="w-5nDEa_0-9KYwIn5jIa-15" value="债券承销发行" style="whiteSpace=wrap;html=1;aspect=fixed;" parent="1" vertex="1">
          <mxGeometry x="160" y="310" width="40" height="40" as="geometry" />
        </mxCell>
        <mxCell id="w-5nDEa_0-9KYwIn5jIa-16" value="并购重组财务顾问" style="whiteSpace=wrap;html=1;aspect=fixed;" parent="1" vertex="1">
          <mxGeometry x="210" y="310" width="40" height="40" as="geometry" />
        </mxCell>
        <mxCell id="gdBLPPlD3JlrtYlogpjC-1" value="业务身份" style="rounded=0;whiteSpace=wrap;html=1;" vertex="1" parent="1">
          <mxGeometry x="100" y="90" width="160" height="30" as="geometry" />
        </mxCell>
        <mxCell id="gdBLPPlD3JlrtYlogpjC-2" value="" style="rounded=0;whiteSpace=wrap;html=1;" vertex="1" parent="1">
          <mxGeometry x="330" y="90" width="290" height="270" as="geometry" />
        </mxCell>
        <mxCell id="gdBLPPlD3JlrtYlogpjC-3" value="能力建模" style="rounded=0;whiteSpace=wrap;html=1;" vertex="1" parent="1">
          <mxGeometry x="330" y="90" width="290" height="30" as="geometry" />
        </mxCell>
        <mxCell id="gdBLPPlD3JlrtYlogpjC-4" value="" style="rounded=0;whiteSpace=wrap;html=1;" vertex="1" parent="1">
          <mxGeometry x="330" y="280" width="290" height="80" as="geometry" />
        </mxCell>
        <mxCell id="gdBLPPlD3JlrtYlogpjC-5" value="" style="rounded=0;whiteSpace=wrap;html=1;" vertex="1" parent="1">
          <mxGeometry x="330" y="200" width="290" height="80" as="geometry" />
        </mxCell>
        <mxCell id="gdBLPPlD3JlrtYlogpjC-6" value="" style="rounded=0;whiteSpace=wrap;html=1;" vertex="1" parent="1">
          <mxGeometry x="330" y="120" width="290" height="80" as="geometry" />
        </mxCell>
        <mxCell id="gdBLPPlD3JlrtYlogpjC-7" value="基础能力" style="rounded=0;whiteSpace=wrap;html=1;" vertex="1" parent="1">
          <mxGeometry x="330" y="280" width="30" height="80" as="geometry" />
        </mxCell>
        <mxCell id="gdBLPPlD3JlrtYlogpjC-12" value="能力组件" style="rounded=0;whiteSpace=wrap;html=1;" vertex="1" parent="1">
          <mxGeometry x="330" y="200" width="30" height="80" as="geometry" />
        </mxCell>
        <mxCell id="gdBLPPlD3JlrtYlogpjC-13" value="解决方案" style="rounded=0;whiteSpace=wrap;html=1;" vertex="1" parent="1">
          <mxGeometry x="330" y="120" width="30" height="80" as="geometry" />
        </mxCell>
        <mxCell id="gdBLPPlD3JlrtYlogpjC-18" value="" style="group" vertex="1" connectable="0" parent="1">
          <mxGeometry x="100" y="400" width="520" height="100" as="geometry" />
        </mxCell>
        <mxCell id="gdBLPPlD3JlrtYlogpjC-16" value="" style="rounded=0;whiteSpace=wrap;html=1;" vertex="1" parent="gdBLPPlD3JlrtYlogpjC-18">
          <mxGeometry width="520" height="100" as="geometry" />
        </mxCell>
        <mxCell id="gdBLPPlD3JlrtYlogpjC-14" value="流程建模" style="rounded=0;whiteSpace=wrap;html=1;" vertex="1" parent="gdBLPPlD3JlrtYlogpjC-18">
          <mxGeometry x="30" y="20" width="190" height="60" as="geometry" />
        </mxCell>
        <mxCell id="gdBLPPlD3JlrtYlogpjC-15" value="领域驱动建模" style="rounded=0;whiteSpace=wrap;html=1;" vertex="1" parent="gdBLPPlD3JlrtYlogpjC-18">
          <mxGeometry x="275" y="20" width="200" height="60" as="geometry" />
        </mxCell>
        <mxCell id="gdBLPPlD3JlrtYlogpjC-17" style="edgeStyle=orthogonalEdgeStyle;curved=1;rounded=0;orthogonalLoop=1;jettySize=auto;html=1;exitX=1;exitY=0.5;exitDx=0;exitDy=0;entryX=0;entryY=0.5;entryDx=0;entryDy=0;" edge="1" parent="gdBLPPlD3JlrtYlogpjC-18" source="gdBLPPlD3JlrtYlogpjC-14" target="gdBLPPlD3JlrtYlogpjC-15">
          <mxGeometry relative="1" as="geometry" />
        </mxCell>
        <mxCell id="gdBLPPlD3JlrtYlogpjC-19" style="edgeStyle=orthogonalEdgeStyle;curved=1;rounded=0;orthogonalLoop=1;jettySize=auto;html=1;exitX=0.5;exitY=0;exitDx=0;exitDy=0;entryX=0.5;entryY=1;entryDx=0;entryDy=0;" edge="1" parent="1" source="gdBLPPlD3JlrtYlogpjC-16" target="w-5nDEa_0-9KYwIn5jIa-20">
          <mxGeometry relative="1" as="geometry" />
        </mxCell>
        <mxCell id="gdBLPPlD3JlrtYlogpjC-20" style="edgeStyle=orthogonalEdgeStyle;curved=1;rounded=0;orthogonalLoop=1;jettySize=auto;html=1;exitX=0.5;exitY=0;exitDx=0;exitDy=0;entryX=0.5;entryY=1;entryDx=0;entryDy=0;" edge="1" parent="1" source="gdBLPPlD3JlrtYlogpjC-16" target="gdBLPPlD3JlrtYlogpjC-4">
          <mxGeometry relative="1" as="geometry" />
        </mxCell>
      </root>
    </mxGraphModel>
  </diagram>
</mxfile>
